<svg width="78" height="78" viewBox="0 0 78 78" fill="none" xmlns="http://www.w3.org/2000/svg">
<path d="M60.125 65H17.875L8.125 74.75V19.5C8.125 14.1375 12.5125 9.75 17.875 9.75H60.125C65.4875 9.75 69.875 14.1375 69.875 19.5V55.25C69.875 60.6125 65.4875 65 60.125 65Z" fill="white"/>
<path d="M35.75 32.5H42.25V50.375H35.75V32.5Z" fill="#C78446"/>
<path d="M39 27.625C40.7949 27.625 42.25 26.1699 42.25 24.375C42.25 22.5801 40.7949 21.125 39 21.125C37.2051 21.125 35.75 22.5801 35.75 24.375C35.75 26.1699 37.2051 27.625 39 27.625Z" fill="#C78446"/>
</svg>