<svg width="74" height="74" viewBox="0 0 74 74" fill="none" xmlns="http://www.w3.org/2000/svg">
<path d="M18.5 52.4167C18.5 46.25 30.8333 42.8583 37 42.8583C43.1667 42.8583 55.5 46.25 55.5 52.4167V55.5H18.5M46.25 27.75C46.25 30.2033 45.2754 32.556 43.5407 34.2907C41.806 36.0254 39.4533 37 37 37C34.5467 37 32.194 36.0254 30.4593 34.2907C28.7245 32.556 27.75 30.2033 27.75 27.75C27.75 25.2967 28.7245 22.944 30.4593 21.2093C32.194 19.4746 34.5467 18.5 37 18.5C39.4533 18.5 41.806 19.4746 43.5407 21.2093C45.2754 22.944 46.25 25.2967 46.25 27.75ZM9.25 15.4167V58.5833C9.25 60.2188 9.8997 61.7873 11.0562 62.9438C12.2126 64.1003 13.7812 64.75 15.4167 64.75H58.5833C60.2188 64.75 61.7873 64.1003 62.9438 62.9438C64.1003 61.7873 64.75 60.2188 64.75 58.5833V15.4167C64.75 13.7812 64.1003 12.2126 62.9438 11.0562C61.7873 9.8997 60.2188 9.25 58.5833 9.25H15.4167C13.7812 9.25 12.2126 9.8997 11.0562 11.0562C9.8997 12.2126 9.25 13.7812 9.25 15.4167Z" fill="white"/>
</svg>