<svg width="20" height="20" viewBox="0 0 20 20" fill="none" xmlns="http://www.w3.org/2000/svg">
<path opacity="0.3" d="M16.6209 6.86834L10.3575 10.783L4.09413 6.86834V14.6976H16.6209V6.86834ZM16.6209 5.30249H4.09413L10.3575 9.20929L16.6209 5.30249Z" fill="white"/>
<path d="M4.09414 16.2634H16.621C17.4822 16.2634 18.1868 15.5588 18.1868 14.6975V5.30242C18.1868 4.44121 17.4822 3.73657 16.621 3.73657H4.09414C3.23292 3.73657 2.52829 4.44121 2.52829 5.30242V14.6975C2.52829 15.5588 3.23292 16.2634 4.09414 16.2634ZM16.621 5.30242L10.3576 9.20923L4.09414 5.30242H16.621ZM4.09414 6.86828L10.3576 10.7829L16.621 6.86828V14.6975H4.09414V6.86828Z" fill="white"/>
</svg>
