<svg width="23" height="24" viewBox="0 0 23 24" fill="none" xmlns="http://www.w3.org/2000/svg">
<path d="M11.2751 2.60474C6.08428 2.60474 1.87996 6.80905 1.87996 11.9999C1.87826 13.9722 2.49793 15.8949 3.65099 17.495C4.80405 19.0952 6.4319 20.2914 8.3034 20.9139C8.77316 20.9957 8.94979 20.7138 8.94979 20.4667C8.94979 20.2441 8.93757 19.5047 8.93757 18.7174C6.57752 19.1523 5.96684 18.1424 5.77893 17.6134C5.67277 17.3429 5.21523 16.5095 4.81594 16.2859C4.48711 16.1102 4.01735 15.6752 4.80372 15.6639C5.54406 15.6517 6.07206 16.3451 6.24869 16.6269C7.09425 18.0475 8.44433 17.6482 8.98455 17.402C9.06722 16.7914 9.31338 16.3808 9.58396 16.1459C7.49354 15.911 5.30918 15.1002 5.30918 11.5066C5.30918 10.4844 5.67277 9.6398 6.27218 8.98214C6.17823 8.74726 5.8494 7.78426 6.36613 6.49243C6.36613 6.49243 7.1525 6.24534 8.94979 7.45449C9.7147 7.24277 10.5049 7.13625 11.2986 7.13788C12.0971 7.13788 12.8957 7.2431 13.6473 7.45449C15.4446 6.23313 16.231 6.49243 16.231 6.49243C16.7477 7.78426 16.4189 8.74726 16.3249 8.98214C16.9234 9.6398 17.2879 10.4731 17.2879 11.5066C17.2879 15.1125 15.0923 15.911 13.0019 16.1459C13.342 16.439 13.6361 17.0027 13.6361 17.884C13.6361 19.1401 13.6239 20.1501 13.6239 20.4677C13.6239 20.7138 13.8005 21.0069 14.2702 20.913C16.1347 20.2827 17.7547 19.0839 18.9026 17.4851C20.0504 15.8863 20.6682 13.968 20.6693 11.9999C20.6693 6.80905 16.4649 2.60474 11.2741 2.60474" fill="white"/>
</svg>
