<svg width="23" height="24" viewBox="0 0 23 24" fill="none" xmlns="http://www.w3.org/2000/svg">
<path d="M17.8507 3.54443C18.3491 3.54443 18.827 3.7424 19.1794 4.09479C19.5318 4.44717 19.7297 4.92511 19.7297 5.42346V18.5766C19.7297 19.075 19.5318 19.5529 19.1794 19.9053C18.827 20.2577 18.3491 20.4556 17.8507 20.4556H4.69755C4.1992 20.4556 3.72127 20.2577 3.36888 19.9053C3.0165 19.5529 2.81853 19.075 2.81853 18.5766V5.42346C2.81853 4.92511 3.0165 4.44717 3.36888 4.09479C3.72127 3.7424 4.1992 3.54443 4.69755 3.54443H17.8507ZM17.381 18.1069V13.1274C17.381 12.3151 17.0583 11.5361 16.4839 10.9617C15.9095 10.3873 15.1305 10.0646 14.3181 10.0646C13.5196 10.0646 12.5894 10.5532 12.1385 11.286V10.2432H9.51724V18.1069H12.1385V13.4751C12.1385 12.7516 12.721 12.1598 13.4444 12.1598C13.7932 12.1598 14.1278 12.2983 14.3745 12.545C14.6211 12.7917 14.7597 13.1262 14.7597 13.4751V18.1069H17.381ZM6.46383 8.76812C6.88244 8.76812 7.28391 8.60182 7.57991 8.30582C7.87592 8.00982 8.04221 7.60835 8.04221 7.18974C8.04221 6.31599 7.33758 5.60196 6.46383 5.60196C6.04273 5.60196 5.63887 5.76925 5.34111 6.06701C5.04334 6.36478 4.87606 6.76863 4.87606 7.18974C4.87606 8.06348 5.59009 8.76812 6.46383 8.76812ZM7.76975 18.1069V10.2432H5.16731V18.1069H7.76975Z" fill="white"/>
</svg>