<svg width="23" height="24" viewBox="0 0 23 24" fill="none" xmlns="http://www.w3.org/2000/svg">
<path d="M11.3575 11.5301C10.7346 11.5301 10.1372 11.2826 9.6967 10.8422C9.25622 10.4017 9.00876 9.80425 9.00876 9.18132C9.00876 8.55838 9.25622 7.96096 9.6967 7.52048C10.1372 7.08 10.7346 6.83254 11.3575 6.83254C11.9805 6.83254 12.5779 7.08 13.0184 7.52048C13.4589 7.96096 13.7063 8.55838 13.7063 9.18132C13.7063 9.48976 13.6456 9.79519 13.5275 10.0802C13.4095 10.3651 13.2365 10.624 13.0184 10.8422C12.8003 11.0603 12.5413 11.2333 12.2564 11.3513C11.9714 11.4693 11.666 11.5301 11.3575 11.5301ZM11.3575 2.60474C9.61332 2.60474 7.94054 3.29762 6.7072 4.53097C5.47385 5.76432 4.78096 7.4371 4.78096 9.18132C4.78096 14.1138 11.3575 21.395 11.3575 21.395C11.3575 21.395 17.9341 14.1138 17.9341 9.18132C17.9341 7.4371 17.2412 5.76432 16.0079 4.53097C14.7745 3.29762 13.1018 2.60474 11.3575 2.60474Z" fill="white"/>
</svg>