<svg width="125" height="125" viewBox="0 0 125 125" fill="none" xmlns="http://www.w3.org/2000/svg">
<path d="M15.625 93.75C12.7604 93.75 10.309 92.7309 8.27084 90.6927C6.23264 88.6545 5.21181 86.2014 5.20834 83.3333C5.20486 80.4653 6.2257 78.0139 8.27084 75.9792C10.316 73.9445 12.7674 72.9236 15.625 72.9167H16.9948C17.3837 72.9167 17.7951 73.0035 18.2292 73.1771L41.9271 49.4792C41.7535 49.0451 41.6667 48.632 41.6667 48.2396V46.875C41.6667 44.0104 42.6875 41.559 44.7292 39.5208C46.7708 37.4826 49.2222 36.4618 52.0833 36.4583C54.9445 36.4549 57.3976 37.4757 59.4427 39.5208C61.4879 41.566 62.507 44.0174 62.5 46.875C62.5 47.0486 62.4132 47.9167 62.2396 49.4792L75.5208 62.7604C75.9549 62.5868 76.3681 62.5 76.7604 62.5H79.4948C79.8837 62.5 80.2951 62.5868 80.7292 62.7604L99.2188 44.2708C99.0451 43.8368 98.9583 43.4236 98.9583 43.0313V41.6667C98.9583 38.8021 99.9792 36.3507 102.021 34.3125C104.063 32.2743 106.514 31.2535 109.375 31.25C112.236 31.2465 114.689 32.2674 116.734 34.3125C118.78 36.3576 119.799 38.809 119.792 41.6667C119.785 44.5243 118.766 46.9774 116.734 49.0261C114.703 51.0747 112.25 52.0938 109.375 52.0833H108.01C107.618 52.0833 107.205 51.9965 106.771 51.8229L88.2813 70.3125C88.4549 70.7465 88.5417 71.1597 88.5417 71.5521V72.9167C88.5417 75.7813 87.5226 78.2344 85.4844 80.2761C83.4462 82.3177 80.9931 83.3368 78.125 83.3333C75.257 83.3299 72.8056 82.3108 70.7708 80.2761C68.7361 78.2413 67.7153 75.7882 67.7083 72.9167V71.5521C67.7083 71.1597 67.7951 70.7465 67.9688 70.3125L54.6875 57.0313C54.2535 57.2049 53.8403 57.2917 53.4479 57.2917H52.0833C51.9097 57.2917 51.0417 57.2049 49.4792 57.0313L25.7813 80.7292C25.9549 81.1632 26.0417 81.5764 26.0417 81.9688V83.3333C26.0417 86.1979 25.0226 88.6511 22.9844 90.6927C20.9462 92.7344 18.4931 93.7535 15.625 93.75Z" fill="white"/>
</svg>